<?xml version="1.0" encoding="UTF-8"?>
<!DOCTYPE svg  PUBLIC '-//W3C//DTD SVG 1.1//EN'  'http://www.w3.org/Graphics/SVG/1.1/DTD/svg11.dtd'>
<svg version="1.1" viewBox="0 0 522 63" xmlns="http://www.w3.org/2000/svg">
<defs>
<clipPath id="a">
<path d="m249.29 0.366c8.357 0 16.715 0 25.072 1e-3 2.308 0 4.615 3e-3 6.923 0 4.98 0 6.318 2.794 5.235 7.979l-2.115 10.4c-1.415 6.415-2.43 12.922-3.929 19.318-0.453 1.8-1.153 4.909-5.506 4.909-3.355 0-10.134-2e-3 -10.287-2e-3s-0.439 3e-3 -0.697 0.287c-0.26 0.285-16.493 18.645-16.493 18.645-1.247 1.417-3.328 1.164-4.082 0.862-0.754-0.301-2.096-1.212-2.096-3.672v-53.077c0.071-3.547 2.763-5.495 6.054-5.65h1.921zm28.31 6.903h-27.216c-1.236 0-2.061 1.096-2.061 2.03v41.416c0 0.126 0.099 0.159 0.201 0.045 0 0 10.024-11.859 11.14-13.225 1.115-1.365 1.525-1.378 3.425-1.436h9.15c1.052 0 1.708-0.819 1.836-1.424 0.129-0.604 1.297-6.439 1.525-7.545 0.227-1.104-0.658-2.079-1.708-2.079h-11.209c-1.487 0-2.702-1.196-2.702-2.661v-1.592c0-1.463 1.284-2.566 2.77-2.566 0 0 12.275 0.02 13.212 0.02 0.936 0 1.726-0.747 1.896-1.537l1.423-7.307c0.256-1.212-0.68-2.139-1.682-2.139z"/>
</clipPath>
</defs>
<path d="m10.66 26.759c1.968 0 3.034-0.492 3.772-1.271 0.697-0.738 1.148-1.722 1.148-2.829s-0.451-2.091-1.148-2.829c-0.738-0.779-1.804-1.271-3.772-1.271h-6.56v8.2h6.56zm-6.56 3.895v12.71h-4.1v-28.7h10.865c2.788 0 4.592 0.697 5.986 1.886 1.722 1.476 2.829 3.649 2.829 6.109s-1.107 4.633-2.829 6.109c-1.394 1.189-3.198 1.886-5.986 1.886h-6.765" fill="#485252"/>
<path d="m30.673 40.084c3.567 0 6.068-2.829 6.068-6.355s-2.501-6.355-6.068-6.355-6.068 2.829-6.068 6.355 2.501 6.355 6.068 6.355zm0-16.4c5.699 0 9.963 4.305 9.963 10.045s-4.264 10.045-9.963 10.045-9.963-4.305-9.963-10.045 4.264-10.045 9.963-10.045" fill="#485252"/>
<path d="m59.988 24.094 5.288 13.161 5.289-13.161h4.018l-7.831 19.27h-2.706l-5.411-13.53-5.412 13.53h-2.706l-7.831-19.27h4.018l5.289 13.161 5.289-13.161h2.706" fill="#485252"/>
<path d="m80.732 31.269h10.497c-0.574-2.46-2.788-4.182-5.084-4.182-2.501 0-4.756 1.681-5.413 4.182zm-0.327 3.28c0.205 3.239 2.87 5.822 6.232 5.822 2.87 0 4.428-1.394 5.535-2.624l2.542 2.419c-1.435 1.846-4.182 3.608-8.118 3.608-5.618 0-9.963-4.264-9.963-10.045s3.936-10.045 9.388-10.045c5.372 0 9.267 4.346 9.267 10.045 0 0.164 0 0.452-0.041 0.82h-14.842" fill="#485252"/>
<path d="m111.03 27.538c-0.451-0.123-0.902-0.164-1.517-0.164-2.009 0-4.141 1.394-5.207 3.239v12.751h-3.895v-19.27h3.772v2.214c0.943-1.312 2.952-2.624 5.781-2.624 0.41 0 1.066 0.041 1.517 0.123l-0.451 3.731" fill="#485252"/>
<path d="m118.04 31.269h10.496c-0.574-2.46-2.787-4.182-5.084-4.182-2.501 0-4.756 1.681-5.412 4.182zm-0.328 3.28c0.206 3.239 2.871 5.822 6.232 5.822 2.871 0 4.429-1.394 5.536-2.624l2.542 2.419c-1.435 1.846-4.183 3.608-8.119 3.608-5.617 0-9.962-4.264-9.962-10.045s3.936-10.045 9.388-10.045c5.371 0 9.266 4.346 9.266 10.045 0 0.164 0 0.452-0.041 0.82h-14.842" fill="#485252"/>
<path d="m151.74 30.121c-1.189-1.558-3.157-2.747-5.494-2.747-3.731 0-6.191 2.993-6.191 6.355 0 3.444 2.665 6.355 6.396 6.355 1.967 0 3.977-0.983 5.289-2.747v-7.216zm0.123 11.48c-1.558 1.394-3.65 2.173-5.945 2.173-1.723 0-3.526-0.492-4.838-1.271-2.912-1.722-4.92-4.92-4.92-8.774s2.049-7.093 4.961-8.815c1.312-0.779 2.911-1.23 4.714-1.23 2.092 0 4.183 0.656 5.905 2.091v-11.521h3.895v29.11h-3.772v-1.763" fill="#485252"/>
<path d="m177.32 37.337c1.312 1.764 3.322 2.747 5.289 2.747 3.731 0 6.396-2.911 6.396-6.355 0-3.362-2.46-6.355-6.191-6.355-2.336 0-4.305 1.189-5.494 2.747v7.216zm-0.123 6.027h-3.772v-29.11h3.895v11.521c1.722-1.435 3.813-2.091 5.905-2.091 1.804 0 3.402 0.451 4.714 1.23 2.912 1.722 4.962 4.961 4.962 8.815s-2.009 7.052-4.921 8.774c-1.312 0.779-3.115 1.271-4.837 1.271-2.296 0-4.388-0.779-5.946-2.173v1.763" fill="#485252"/>
<path d="m198.07 53.204 5.207-11.849-8.24-17.261h4.181l6.028 12.71 5.535-12.71h4.1l-12.67 29.11h-4.141" fill="#485252"/>
<path d="m326.53 26.941v3.895h-9.43v13.53h-4.1v-28.7h16.4v3.895h-12.3v7.38h9.43" fill="#485252"/>
<path d="m341.21 41.086c3.567 0 6.068-2.829 6.068-6.355s-2.501-6.355-6.068-6.355-6.068 2.829-6.068 6.355 2.501 6.355 6.068 6.355zm0-16.4c5.699 0 9.963 4.305 9.963 10.045s-4.264 10.045-9.963 10.045-9.963-4.305-9.963-10.045 4.264-10.045 9.963-10.045" fill="#485252"/>
<path d="m357.86 41.537c-1.189-1.476-1.763-3.362-1.763-6.601v-9.84h3.895v10.455c0 1.968 0.41 3.034 1.107 3.854 0.862 1.026 2.255 1.681 3.732 1.681 2.378 0 4.304-1.435 5.411-2.747v-13.243h3.895v19.27h-3.772v-1.763c-0.861 0.82-2.992 2.173-5.657 2.173-2.747 0-5.248-1.23-6.848-3.239" fill="#485252"/>
<path d="m391.72 28.54c-0.451-0.123-0.902-0.164-1.517-0.164-2.009 0-4.141 1.394-5.207 3.239v12.751h-3.895v-19.27h3.771v2.214c0.944-1.312 2.953-2.624 5.782-2.624 0.41 0 1.066 0.041 1.516 0.123l-0.45 3.731" fill="#485252"/>
<path d="m397.05 39.241c1.804 1.394 3.772 2.132 5.698 2.132 1.682 0 3.363-0.902 3.363-2.419 0-2.214-3.198-2.337-6.028-3.28-2.336-0.779-4.427-2.255-4.427-4.961 0-4.141 3.69-6.027 7.133-6.027 2.83 0 4.88 0.902 6.397 2.132l-2.009 2.788c-1.189-0.902-2.583-1.517-4.141-1.517-1.886 0-3.485 0.902-3.485 2.419 0 1.312 1.517 1.762 3.444 2.255 3.034 0.779 7.011 2.132 7.011 6.109 0 3.649-3.403 5.904-7.176 5.904-3.074 0-5.657-0.943-7.79-2.665l2.01-2.87" fill="#485252"/>
<path d="m429.48 31.123c-1.189-1.558-3.156-2.747-5.494-2.747-3.731 0-6.191 2.993-6.191 6.355 0 3.444 2.665 6.355 6.396 6.355 1.969 0 3.977-0.984 5.289-2.747v-7.216zm-5.821 13.653c-1.723 0-3.527-0.492-4.839-1.271-2.91-1.722-4.92-4.92-4.92-8.774s2.051-7.093 4.961-8.815c1.312-0.779 2.911-1.23 4.716-1.23 2.172 0 4.263 0.656 6.026 2.173v-1.763h3.772v29.11h-3.895v-11.521c-1.558 1.353-3.525 2.091-5.821 2.091" fill="#485252"/>
<path d="m441.7 41.537c-1.189-1.476-1.763-3.362-1.763-6.601v-9.84h3.895v10.455c0 1.968 0.41 3.034 1.107 3.854 0.861 1.026 2.255 1.681 3.731 1.681 2.378 0 4.305-1.435 5.412-2.747v-13.243h3.895v19.27h-3.772v-1.763c-0.861 0.82-2.993 2.173-5.658 2.173-2.747 0-5.248-1.23-6.847-3.239" fill="#485252"/>
<path d="m478.89 31.123c-1.188-1.558-3.156-2.747-5.494-2.747-3.73 0-6.19 2.993-6.19 6.355 0 3.444 2.665 6.355 6.395 6.355 1.969 0 3.978-0.984 5.289-2.747v-7.216zm0.123 11.48c-1.557 1.394-3.648 2.173-5.944 2.173-1.723 0-3.526-0.492-4.839-1.271-2.91-1.722-4.92-4.92-4.92-8.774s2.051-7.093 4.961-8.815c1.313-0.779 2.911-1.23 4.716-1.23 2.173 0 4.264 0.656 6.026 2.173v-1.763h3.773v19.27h-3.773v-1.763" fill="#485252"/>
<path d="m500.37 28.54c-0.452-0.123-0.903-0.164-1.518-0.164-2.009 0-4.141 1.394-5.207 3.239v12.751h-3.895v-19.27h3.772v2.214c0.943-1.312 2.952-2.624 5.781-2.624 0.41 0 1.067 0.041 1.517 0.123l-0.45 3.731" fill="#485252"/>
<path d="m506.97 32.27h10.496c-0.574-2.459-2.788-4.181-5.084-4.181-2.501 0-4.756 1.681-5.412 4.181zm-0.328 3.281c0.205 3.239 2.87 5.822 6.232 5.822 2.87 0 4.428-1.394 5.535-2.624l2.542 2.419c-1.435 1.846-4.182 3.608-8.117 3.608-5.618 0-9.964-4.264-9.964-10.045s3.936-10.045 9.389-10.045c5.371 0 9.266 4.346 9.266 10.045 0 0.164 0 0.451-0.041 0.82h-14.842" fill="#485252"/>
<g clip-path="url(#a)">
<path d="m241.2 0.36h45.72v62.64h-45.72z" fill="#DE456D"/>
</g>
</svg>
